<svg width="20" height="19" viewBox="0 0 20 19" fill="none" xmlns="http://www.w3.org/2000/svg">
<path d="M19.6211 7.08047C19.7734 6.96543 20 7.07305 20 7.25488V14.8438C20 15.8271 19.1602 16.625 18.125 16.625H1.875C0.839844 16.625 0 15.8271 0 14.8438V7.25859C0 7.07305 0.222656 6.96914 0.378906 7.08418C1.25391 7.72988 2.41406 8.55 6.39844 11.2998C7.22266 11.8713 8.61328 13.0736 10 13.0662C11.3945 13.0773 12.8125 11.849 13.6055 11.2998C17.5898 8.55 18.7461 7.72617 19.6211 7.08047ZM10 11.875C10.9062 11.8898 12.2109 10.7914 12.8672 10.3387C18.0508 6.76504 18.4453 6.45332 19.6406 5.5627C19.8672 5.3957 20 5.13594 20 4.86133V4.15625C20 3.17285 19.1602 2.375 18.125 2.375H1.875C0.839844 2.375 0 3.17285 0 4.15625V4.86133C0 5.13594 0.132812 5.39199 0.359375 5.5627C1.55469 6.44961 1.94922 6.76504 7.13281 10.3387C7.78906 10.7914 9.09375 11.8898 10 11.875Z" fill="#50815B"/>
</svg>
