<svg width="50" height="50" viewBox="0 0 50 50" fill="none" xmlns="http://www.w3.org/2000/svg">
<rect x="0.5" y="0.5" width="49" height="49" rx="24.5" fill="#FDF9EB" stroke="#50815B"/>
<path d="M26.7339 11.9655C27.7112 11.9618 28.6885 11.9716 29.6656 11.995L29.9254 12.0044C30.2254 12.0151 30.5214 12.0285 30.8789 12.0445C32.3039 12.1115 33.2763 12.3365 34.1294 12.6673C35.0133 13.0075 35.758 13.4682 36.5026 14.2128C37.1835 14.882 37.7104 15.6913 38.0468 16.5847C38.3776 17.4378 38.6026 18.4115 38.6696 19.8365C38.6856 20.1927 38.699 20.4901 38.7098 20.7901L38.7178 21.0499C38.7416 22.0265 38.7519 23.0034 38.7486 23.9803L38.7499 24.9794V26.7338C38.7532 27.7111 38.743 28.6885 38.7191 29.6655L38.7111 29.9253C38.7004 30.2253 38.687 30.5213 38.6709 30.8789C38.604 32.3039 38.3763 33.2762 38.0468 34.1294C37.7115 35.0237 37.1844 35.8337 36.5026 36.5026C35.8329 37.1834 35.0231 37.7103 34.1294 38.0468C33.2763 38.3776 32.3039 38.6026 30.8789 38.6695C30.5214 38.6856 30.2254 38.699 29.9254 38.7097L29.6656 38.7178C28.6885 38.7416 27.7112 38.7518 26.7339 38.7486L25.7348 38.7499H23.9816C23.0043 38.7532 22.027 38.7429 21.0499 38.7191L20.7901 38.7111C20.4722 38.6995 20.1543 38.6861 19.8365 38.6709C18.4115 38.6039 17.4392 38.3762 16.5848 38.0468C15.691 37.7111 14.8815 37.184 14.2129 36.5026C13.5312 35.8333 13.0038 35.0234 12.6673 34.1294C12.3365 33.2762 12.1115 32.3039 12.0446 30.8789C12.0297 30.5611 12.0163 30.2433 12.0044 29.9253L11.9977 29.6655C11.973 28.6885 11.9618 27.7112 11.9642 26.7338V23.9803C11.9605 23.0034 11.9703 22.0265 11.9937 21.0499L12.0031 20.7901C12.0138 20.4901 12.0272 20.1927 12.0432 19.8365C12.1102 18.4102 12.3352 17.4392 12.666 16.5847C13.0027 15.6909 13.5311 14.8817 14.2142 14.2142C14.8824 13.5321 15.6914 13.0042 16.5848 12.6673C17.4392 12.3365 18.4102 12.1115 19.8365 12.0445L20.7901 12.0044L21.0499 11.9977C22.0265 11.973 23.0034 11.9618 23.9803 11.9642L26.7339 11.9655ZM25.3571 18.6619C24.4698 18.6494 23.5889 18.8133 22.7655 19.1442C21.9422 19.475 21.1928 19.9662 20.5609 20.5893C19.929 21.2123 19.4273 21.9546 19.0848 22.7732C18.7423 23.5918 18.5659 24.4703 18.5659 25.3577C18.5659 26.2451 18.7423 27.1236 19.0848 27.9422C19.4273 28.7608 19.929 29.5032 20.5609 30.1262C21.1928 30.7492 21.9422 31.2404 22.7655 31.5712C23.5889 31.9021 24.4698 32.066 25.3571 32.0535C27.1331 32.0535 28.8363 31.348 30.0922 30.0921C31.348 28.8363 32.0535 27.133 32.0535 25.357C32.0535 23.581 31.348 21.8778 30.0922 20.6219C28.8363 19.3661 27.1331 18.6619 25.3571 18.6619ZM25.3571 21.3405C25.8908 21.3307 26.4211 21.4273 26.9171 21.6247C27.413 21.8221 27.8647 22.1164 28.2456 22.4904C28.6266 22.8643 28.9292 23.3104 29.1358 23.8026C29.3424 24.2948 29.4489 24.8232 29.449 25.357C29.449 25.8908 29.3428 26.4193 29.1363 26.9116C28.9299 27.4038 28.6274 27.85 28.2466 28.2241C27.8657 28.5982 27.4142 28.8926 26.9183 29.0902C26.4224 29.2878 25.8921 29.3846 25.3584 29.3749C24.2928 29.3749 23.2709 28.9516 22.5174 28.1981C21.7639 27.4446 21.3406 26.4226 21.3406 25.357C21.3406 24.2914 21.7639 23.2695 22.5174 22.516C23.2709 21.7625 24.2928 21.3392 25.3584 21.3392L25.3571 21.3405ZM32.3883 16.653C31.9563 16.6703 31.5476 16.8541 31.2481 17.1659C30.9485 17.4777 30.7812 17.8934 30.7812 18.3258C30.7812 18.7582 30.9485 19.1738 31.2481 19.4856C31.5476 19.7975 31.9563 19.9813 32.3883 19.9986C32.8323 19.9986 33.2581 19.8222 33.5721 19.5082C33.8861 19.1943 34.0624 18.7684 34.0624 18.3244C34.0624 17.8804 33.8861 17.4546 33.5721 17.1407C33.2581 16.8267 32.8323 16.6503 32.3883 16.6503V16.653Z" fill="#50815B"/>
</svg>
