<svg width="50" height="50" viewBox="0 0 50 50" fill="none" xmlns="http://www.w3.org/2000/svg">
<rect x="0.5" y="0.5" width="49" height="49" rx="24.5" fill="#50815B" stroke="#50815B"/>
<path d="M43.3589 19.2314L43.2972 19.1696C42.7381 18.6345 42.1412 18.806 41.7124 19.077C41.3385 19.3137 41.1121 19.7288 41.1121 20.1713V21.3959H42.395C43.5202 21.3993 44.1307 20.0478 43.3589 19.2314Z" fill="#FDF9EB"/>
<path d="M40.5187 23.4267C40.5187 22.8641 40.5152 21.1867 40.5049 20.6756C40.4912 18.9502 38.7212 18.9913 38.7212 18.9913H36.7968L36.7831 18.0069H34.3682V18.9913H32.7834V21.3239H34.3442V23.4129H31.9945V25.8759H34.4128V31.1688H36.8071V25.8416C37.9871 25.8416 39.0642 25.8244 40.1379 25.8484C40.673 25.8587 40.9612 26.2017 40.9783 26.7266C40.9989 27.3543 40.9783 29.1689 40.9783 29.1689L38.56 29.1621L39.4896 31.1688H41.7124C41.7124 31.1688 43.4207 31.2133 43.4207 29.4673V25.2447C43.4241 23.8314 42.5528 23.4164 40.5187 23.4267ZM38.4125 23.4164H36.8174L36.8003 21.3273H38.4159V23.4164H38.4125ZM6 27.5052C6.46651 28.3285 6.93303 29.1483 7.44071 30.0436C9.3445 27.3715 9.25874 21.3925 9.25874 21.3925H6.71692C6.92274 24.5895 6.00343 27.4092 6 27.5052ZM10.9807 18.0069V29.1861H9.37194L10.9018 31.2168H12.3666C12.3666 31.2168 13.3922 31.2168 13.3682 29.7212C13.3853 26.0577 13.3888 21.6669 13.3922 18.0034C12.593 18.0034 11.7868 18.0034 10.9807 18.0069ZM23.3605 24.4043C23.8545 23.4061 24.3519 22.4113 24.9076 21.2862C23.8545 21.3479 22.9695 21.3994 21.985 21.4543C22.4069 20.3326 23.0655 19.1834 23.659 18H21.2441C20.5409 19.4441 19.7999 20.8711 19.1413 22.3324C18.7228 23.2552 19.0624 23.7079 20.0778 23.7422C20.4208 23.756 20.7638 23.7457 21.2372 23.7457C21.0725 24.1059 20.9628 24.3494 20.853 24.593C20.5306 25.2996 20.1875 25.9994 19.896 26.7197C19.6593 27.3029 19.8891 27.7659 20.5031 27.8345C21.3504 27.9272 22.208 27.8997 23.0587 27.9031C23.1547 27.9031 23.2919 27.7968 23.3434 27.7008C23.6487 27.1348 23.9334 26.5551 24.2558 25.9205C24.0363 25.9033 23.9197 25.8862 23.7996 25.8827C22.647 25.8519 22.647 25.8484 23.165 24.8056C23.2267 24.6787 23.2919 24.5381 23.3605 24.4043Z" fill="#FDF9EB"/>
<path d="M29.4527 28.9014H31.9602V31.2202H23.2885C23.7104 30.3867 24.4582 28.9014 24.4582 28.9014H26.9314V21.3205H25.3912V18.9502H30.9791V21.2828H29.4527V28.9014ZM15.1108 21.3685H17.4914C17.3095 23.7354 18.0745 26.8947 18.0745 26.8947C18.0745 26.8947 17.3816 28.4486 16.8773 29.9064C15.7213 28.8979 15.0936 25.8656 15.1108 21.3685ZM19.3986 28.7539H23.2542C22.822 29.5977 22.4824 30.2838 22.1119 30.9561C22.0433 31.0796 21.8375 31.1962 21.6934 31.1996C20.5683 31.2168 19.4466 31.2099 18.1534 31.2099C18.6439 30.2392 19.0453 29.4502 19.3986 28.7539Z" fill="#FDF9EB"/>
</svg>
