<svg width="50" height="50" viewBox="0 0 50 50" fill="none" xmlns="http://www.w3.org/2000/svg">
<rect x="0.5" y="0.5" width="49" height="49" rx="24.5" fill="#FDF9EB" stroke="#50815B"/>
<path d="M38.6516 17.3214C37.6204 17.7901 36.5088 18.0982 35.357 18.2455C36.5356 17.5357 37.4463 16.4107 37.8749 15.058C36.7633 15.7276 35.5311 16.1964 34.232 16.4643C33.174 15.3125 31.6874 14.6428 29.9999 14.6428C26.8525 14.6428 24.2811 17.2143 24.2811 20.3884C24.2811 20.8437 24.3347 21.2857 24.4284 21.7009C19.6606 21.4598 15.415 19.1696 12.5891 15.7009C12.0936 16.5446 11.8124 17.5357 11.8124 18.5803C11.8124 20.5759 12.8168 22.3437 14.3704 23.3482C13.4195 23.3482 12.5356 23.0803 11.7588 22.6785V22.7187C11.7588 25.5044 13.7409 27.8348 16.3659 28.3571C15.5232 28.5877 14.6384 28.6198 13.7811 28.4509C14.1449 29.5926 14.8573 30.5916 15.8182 31.3075C16.7791 32.0233 17.9402 32.4201 19.1383 32.4419C17.1074 34.0497 14.59 34.9187 11.9999 34.9062C11.5445 34.9062 11.0891 34.8794 10.6338 34.8259C13.1784 36.4598 16.2052 37.4107 19.4463 37.4107C29.9999 37.4107 35.799 28.6518 35.799 21.058C35.799 20.8035 35.799 20.5625 35.7856 20.308C36.9106 19.5044 37.8749 18.4866 38.6516 17.3214Z" fill="#50815B"/>
</svg>
