<svg width="45" height="45" viewBox="0 0 45 45" fill="none" xmlns="http://www.w3.org/2000/svg">
<path d="M29.7187 15.2625C30.45 15.2625 31.1625 15.3188 31.8562 15.4125C30.5812 9.84375 24.7312 5.625 17.7 5.625C9.73125 5.625 3.2625 11.025 3.2625 17.6813C3.2625 21.525 5.41875 24.9188 8.775 27.1313L6.88125 30.9375L12.0562 28.7063C13.1625 29.1 14.325 29.4187 15.5625 29.5875C15.3937 28.8562 15.3 28.1062 15.3 27.3187C15.2812 20.6812 21.75 15.2625 29.7187 15.2625ZM22.5 11.0437C22.7364 11.0437 22.9704 11.0903 23.1888 11.1808C23.4072 11.2712 23.6056 11.4038 23.7728 11.571C23.9399 11.7381 24.0725 11.9365 24.163 12.1549C24.2534 12.3733 24.3 12.6074 24.3 12.8438C24.3 13.0801 24.2534 13.3142 24.163 13.5326C24.0725 13.751 23.9399 13.9494 23.7728 14.1165C23.6056 14.2837 23.4072 14.4163 23.1888 14.5067C22.9704 14.5972 22.7364 14.6438 22.5 14.6438C22.0226 14.6438 21.5648 14.4541 21.2272 14.1165C20.8896 13.779 20.7 13.3211 20.7 12.8438C20.7 12.3664 20.8896 11.9085 21.2272 11.571C21.5648 11.2334 22.0226 11.0437 22.5 11.0437ZM12.8812 14.6625C12.4039 14.6625 11.946 14.4729 11.6085 14.1353C11.2709 13.7977 11.0812 13.3399 11.0812 12.8625C11.0812 12.3851 11.2709 11.9273 11.6085 11.5897C11.946 11.2521 12.4039 11.0625 12.8812 11.0625C13.3586 11.0625 13.8165 11.2521 14.154 11.5897C14.4916 11.9273 14.6812 12.3851 14.6812 12.8625C14.6812 13.3399 14.4916 13.7977 14.154 14.1353C13.8165 14.4729 13.3586 14.6625 12.8812 14.6625Z" fill="#50815B"/>
<path d="M41.7375 27.3187C41.7375 21.9937 36.3562 17.6812 29.7187 17.6812C23.0812 17.6812 17.7 21.9937 17.7 27.3187C17.7 32.6437 23.0812 36.9561 29.7187 36.9561C30.8062 36.9561 31.8562 36.8062 32.85 36.5812L39.3375 39.3749L37.0875 34.8749C39.9 33.1124 41.7375 30.4124 41.7375 27.3187ZM26.1 26.7187C25.744 26.7187 25.396 26.6131 25.1 26.4153C24.804 26.2175 24.5733 25.9364 24.437 25.6075C24.3008 25.2786 24.2651 24.9167 24.3346 24.5675C24.404 24.2183 24.5755 23.8976 24.8272 23.6459C25.0789 23.3941 25.3997 23.2227 25.7488 23.1532C26.098 23.0838 26.4599 23.1194 26.7888 23.2557C27.1177 23.3919 27.3989 23.6226 27.5966 23.9186C27.7944 24.2146 27.9 24.5626 27.9 24.9187C27.9187 25.9124 27.0937 26.7187 26.1 26.7187ZM33.3187 26.7187C32.8414 26.7187 32.3835 26.529 32.046 26.1914C31.7084 25.8539 31.5187 25.396 31.5187 24.9187C31.5187 24.4413 31.7084 23.9834 32.046 23.6459C32.3835 23.3083 32.8414 23.1187 33.3187 23.1187C33.7961 23.1187 34.254 23.3083 34.5915 23.6459C34.9291 23.9834 35.1187 24.4413 35.1187 24.9187C35.1187 25.396 34.9291 25.8539 34.5915 26.1914C34.254 26.529 33.7961 26.7187 33.3187 26.7187Z" fill="#50815B"/>
</svg>
